<svg id="Camada_1" data-name="Camada 1" xmlns="http://www.w3.org/2000/svg" viewBox="0 0 468.12 108.36"><defs><style>.cls-1,.cls-2{fill:#fff;}.cls-2{stroke:#fff;stroke-miterlimit:10;}</style></defs><path class="cls-1" d="M92,38.69h0a0,0,0,0,1,0,0V69.49a38.87,38.87,0,0,1-38.87,38.87h0a0,0,0,0,1,0,0V77.57A38.87,38.87,0,0,1,92,38.69Z"/><path class="cls-1" d="M31.62,30.2H76.2a0,0,0,0,1,0,0v0A43.29,43.29,0,0,1,32.9,73.5H-11.68a0,0,0,0,1,0,0v0A43.29,43.29,0,0,1,31.62,30.2Z" transform="translate(73.5 11.68) rotate(90)"/><circle class="cls-1" cx="78.49" cy="26.44" r="14.7" transform="translate(23.99 88.77) rotate(-76.62)"/><path class="cls-2" d="M193.18,39.68v13.6h9.31v7.6h-9.31V83.25a6.19,6.19,0,0,0,1.39,4.47q1.38,1.44,4.61,1.44a13.69,13.69,0,0,0,3.31-.36V96a16.87,16.87,0,0,1-5.73.8q-5.55,0-8.77-3.22t-3.22-9V60.88h-8.23v-7.6h2.33a6.32,6.32,0,0,0,5-1.84,6.82,6.82,0,0,0,1.66-4.78v-7Z" transform="translate(-10.61 -7.91)"/><path class="cls-2" d="M222.08,71V96.31h-8.41V31.54h8.41V58.29Q226.37,52,235.14,52q7.43,0,11.41,4.74t4,12.26V96.31h-8.41V70.46q0-10.83-10-10.83a8.84,8.84,0,0,0-7.25,3.18A13.27,13.27,0,0,0,222.08,71Z" transform="translate(-10.61 -7.91)"/><path class="cls-2" d="M287.84,52.83v9a25.7,25.7,0,0,0-3.67-.27q-11.81,0-11.81,13.24V96.31H264v-43h8.24v7.51q3.93-8.22,12.88-8.23A14,14,0,0,1,287.84,52.83Z" transform="translate(-10.61 -7.91)"/><path class="cls-2" d="M299,58.42a22.49,22.49,0,0,1,31.59,0,22.68,22.68,0,0,1,6.21,16.33q0,9.93-6.17,16.42a22.56,22.56,0,0,1-31.67,0q-6.18-6.48-6.18-16.42A22.69,22.69,0,0,1,299,58.42Zm6.27,27.65a13.18,13.18,0,0,0,19.05,0q3.9-4.06,3.89-11.32T324.3,63.52a13.18,13.18,0,0,0-19.05,0q-3.9,4.08-3.9,11.23T305.25,86.07Z" transform="translate(-10.61 -7.91)"/><path class="cls-2" d="M355.93,71.44V96.31h-8.41v-43h8.23v6.17Q360,52,369,52q7.42,0,11.41,4.74t4,12.26V96.31H376V70.46q0-10.83-10-10.83A8.85,8.85,0,0,0,358.57,63,13.23,13.23,0,0,0,355.93,71.44Z" transform="translate(-10.61 -7.91)"/><path class="cls-2" d="M400.44,58.42a22.49,22.49,0,0,1,31.59,0,22.68,22.68,0,0,1,6.21,16.33q0,9.93-6.17,16.42a22.56,22.56,0,0,1-31.67,0q-6.18-6.48-6.18-16.42A22.69,22.69,0,0,1,400.44,58.42Zm6.27,27.65a13.18,13.18,0,0,0,19.05,0q3.9-4.06,3.89-11.32t-3.89-11.23a13.18,13.18,0,0,0-19.05,0q-3.9,4.08-3.9,11.23T406.71,86.07Z" transform="translate(-10.61 -7.91)"/><path class="cls-2" d="M445,85.13l7.61-2.68a9,9,0,0,0,3,5.77,10.2,10.2,0,0,0,7,2.28A8,8,0,0,0,468,88.84a5.12,5.12,0,0,0,2-4.07q0-4.29-5.55-5.54L457,77.61a14.08,14.08,0,0,1-7.87-4.29,11.3,11.3,0,0,1-2.86-7.78A12.43,12.43,0,0,1,450.81,56a15.7,15.7,0,0,1,10.79-4,20.87,20.87,0,0,1,7.33,1.2,12.65,12.65,0,0,1,5,3.18A18.23,18.23,0,0,1,476.63,60,16,16,0,0,1,478,63.48l-7.43,2.77a9.5,9.5,0,0,0-.62-2.1,11.34,11.34,0,0,0-1.39-2.28,6.52,6.52,0,0,0-2.73-2,10.79,10.79,0,0,0-4.2-.76,7.72,7.72,0,0,0-5.15,1.7,5.14,5.14,0,0,0-2,4q0,4.11,4.92,5.19l7,1.52a16.34,16.34,0,0,1,8.81,4.61,11.62,11.62,0,0,1,3.09,8.18,12.7,12.7,0,0,1-4.16,9.22q-4.17,4.11-11.59,4.12-8,0-12.44-4T445,85.13Z" transform="translate(-10.61 -7.91)"/></svg>